<?xml version="1.0" encoding="utf-8"?>
<!-- Generator: Adobe Illustrator 22.0.1, SVG Export Plug-In . SVG Version: 6.00 Build 0)  -->
<svg version="1.1" id="Layer_1" xmlns="http://www.w3.org/2000/svg" xmlns:xlink="http://www.w3.org/1999/xlink" x="0px" y="0px"
	 viewBox="0 0 384 180" style="enable-background:new 0 0 384 180;" xml:space="preserve">
<style type="text/css">
	.st0{fill:#999999;}
	.st1{fill:#418AB8;}
	.st2{enable-background:new    ;}
</style>
<title>Stats_2</title>
<path class="st0" d="M70,44.3c3.2,0,5.8-2.6,5.8-5.8s-2.6-5.8-5.8-5.8c-3.2,0-5.8,2.6-5.8,5.8c0,0,0,0,0,0
	C64.2,41.7,66.8,44.3,70,44.3z"/>
<path class="st0" d="M80.3,50.1c-0.1-3.7-4.6-5.1-5.7-5.2l0,0c-0.3,0-1.1,0-4.6,0s-4.4,0-4.6,0l0,0c-1.1,0.2-5.6,1.6-5.7,5.2
	L59,64.9V65c0,0.1,0,0.3,0,0.4c0,1.2,0,2.7,1.5,3.3c0.4,0.2,0.9,0.3,1.4,0.3c0.6,0,1.1-0.1,1.6-0.4v20c-0.1,1.9,1.4,3.5,3.3,3.6
	c1.6,0,2.9-1.2,3.3-2.7c0.3,1.5,1.7,2.7,3.2,2.7c1.9-0.1,3.4-1.7,3.3-3.6v-20c0.5,0.3,1,0.4,1.6,0.4l0,0c0.5,0,0.9-0.1,1.4-0.3
	c1.5-0.7,1.5-2.2,1.5-3.3c0-0.2,0-0.3,0-0.4l0,0L80.3,50.1z"/>
<path class="st0" d="M97,44.3c3.2,0,5.8-2.6,5.8-5.8s-2.6-5.8-5.8-5.8c-3.2,0-5.8,2.6-5.8,5.8c0,0,0,0,0,0
	C91.2,41.7,93.8,44.3,97,44.3z"/>
<path class="st0" d="M107.3,50.1c-0.1-3.7-4.6-5.1-5.7-5.2l0,0c-0.3,0-1.1,0-4.6,0s-4.4,0-4.6,0l0,0c-1.1,0.2-5.6,1.6-5.7,5.2
	L86,64.9V65c0,0.1,0,0.3,0,0.4c0,1.2,0,2.7,1.4,3.3c0.4,0.2,0.9,0.3,1.4,0.3c0.6,0,1.1-0.1,1.6-0.4v20c-0.1,1.9,1.4,3.5,3.3,3.6
	c1.6,0,2.9-1.2,3.3-2.7c0.3,1.5,1.7,2.7,3.2,2.7c1.9-0.1,3.4-1.7,3.3-3.6v-20c0.5,0.3,1,0.4,1.6,0.4l0,0c0.5,0,0.9-0.1,1.4-0.3
	c1.4-0.6,1.4-2.1,1.4-3.3c0-0.2,0-0.3,0-0.4l0,0L107.3,50.1z"/>
<path class="st0" d="M124,44.3c3.2,0,5.8-2.6,5.8-5.8s-2.6-5.8-5.8-5.8c-3.2,0-5.8,2.6-5.8,5.8c0,0,0,0,0,0
	C118.2,41.7,120.8,44.3,124,44.3z"/>
<path class="st0" d="M134.3,50.1c-0.1-3.7-4.6-5.1-5.7-5.2l0,0c-0.3,0-1.1,0-4.6,0s-4.4,0-4.6,0l0,0c-1.1,0.2-5.6,1.6-5.7,5.2
	L113,64.9V65c0,0.1,0,0.3,0,0.4c0,1.2,0,2.7,1.4,3.3c0.4,0.2,0.9,0.3,1.4,0.3c0.6,0,1.1-0.1,1.6-0.4v20c-0.1,1.9,1.4,3.5,3.3,3.6
	c1.6,0,2.9-1.2,3.3-2.7c0.3,1.5,1.7,2.7,3.2,2.7c1.9-0.1,3.4-1.7,3.4-3.6v-20c0.5,0.3,1,0.4,1.6,0.4l0,0c0.5,0,0.9-0.1,1.4-0.3
	c1.4-0.6,1.4-2.1,1.4-3.3c0-0.2,0-0.3,0-0.4l0,0L134.3,50.1z"/>
<path class="st0" d="M151,44.3c3.2,0,5.8-2.6,5.8-5.8s-2.6-5.8-5.8-5.8c-3.2,0-5.8,2.6-5.8,5.8c0,0,0,0,0,0
	C145.2,41.7,147.8,44.3,151,44.3z"/>
<path class="st0" d="M161.3,50.1c-0.1-3.7-4.6-5.1-5.7-5.2l0,0c-0.3,0-1.1,0-4.6,0s-4.4,0-4.6,0l0,0c-1.1,0.2-5.6,1.6-5.7,5.2
	L140,64.9V65c0,0.1,0,0.3,0,0.4c0,1.2,0,2.7,1.4,3.3c0.4,0.2,0.9,0.3,1.4,0.3c0.6,0,1.1-0.1,1.6-0.4v20c-0.1,1.9,1.4,3.5,3.4,3.6
	c1.6,0,2.9-1.2,3.3-2.7c0.3,1.5,1.7,2.7,3.2,2.7c1.9-0.1,3.4-1.7,3.4-3.6v-20c0.5,0.3,1,0.4,1.6,0.4l0,0c0.5,0,0.9-0.1,1.4-0.3
	c1.4-0.6,1.4-2.1,1.4-3.3c0-0.2,0-0.3,0-0.4l0,0L161.3,50.1z"/>
<path class="st0" d="M178,44.3c3.2,0,5.8-2.6,5.8-5.8s-2.6-5.8-5.8-5.8c-3.2,0-5.8,2.6-5.8,5.8c0,0,0,0,0,0
	C172.2,41.7,174.8,44.3,178,44.3z"/>
<path class="st0" d="M188.3,50.1c-0.1-3.7-4.6-5.1-5.7-5.2l0,0c-0.3,0-1.1,0-4.6,0s-4.4,0-4.6,0l0,0c-1.1,0.2-5.6,1.6-5.7,5.2
	L167,64.9V65c0,0.1,0,0.3,0,0.4c0,1.2,0,2.7,1.4,3.3c0.4,0.2,0.9,0.3,1.4,0.3c0.6,0,1.1-0.1,1.6-0.4v20c-0.1,1.9,1.4,3.5,3.4,3.6
	c1.6,0,2.9-1.2,3.3-2.7c0.3,1.5,1.7,2.7,3.2,2.7c1.9-0.1,3.4-1.7,3.4-3.6v-20c0.5,0.3,1,0.4,1.6,0.4l0,0c0.5,0,0.9-0.1,1.4-0.3
	c1.4-0.6,1.4-2.1,1.4-3.3c0-0.2,0-0.3,0-0.4l0,0L188.3,50.1z"/>
<path class="st1" d="M205,44.3c3.2,0,5.8-2.6,5.8-5.8s-2.6-5.8-5.8-5.8c-3.2,0-5.8,2.6-5.8,5.8c0,0,0,0,0,0
	C199.2,41.7,201.8,44.3,205,44.3z"/>
<path class="st1" d="M215.3,50.1c-0.1-3.7-4.6-5.1-5.7-5.2l0,0c-0.3,0-1.1,0-4.6,0s-4.4,0-4.6,0l0,0c-1.1,0.2-5.6,1.6-5.7,5.2
	L194,64.9V65c0,0.1,0,0.3,0,0.4c0,1.2,0,2.7,1.4,3.3c0.4,0.2,0.9,0.3,1.4,0.3c0.6,0,1.1-0.1,1.6-0.4v20c-0.1,1.9,1.4,3.5,3.4,3.6
	c1.6,0,2.9-1.2,3.3-2.7c0.3,1.5,1.7,2.7,3.2,2.7c1.9-0.1,3.4-1.7,3.4-3.6v-20c0.5,0.3,1,0.4,1.6,0.4l0,0c0.5,0,0.9-0.1,1.4-0.3
	c1.4-0.6,1.4-2.1,1.4-3.3c0-0.2,0-0.3,0-0.4l0,0L215.3,50.1z"/>
<path class="st0" d="M232,44.3c3.2,0,5.8-2.6,5.8-5.8s-2.6-5.8-5.8-5.8c-3.2,0-5.8,2.6-5.8,5.8c0,0,0,0,0,0
	C226.2,41.7,228.8,44.3,232,44.3z"/>
<path class="st0" d="M242.3,50.1c-0.1-3.7-4.6-5.1-5.7-5.2l0,0c-0.3,0-1.1,0-4.6,0s-4.4,0-4.6,0l0,0c-1.1,0.2-5.6,1.6-5.7,5.2
	L221,64.9V65c0,0.1,0,0.3,0,0.4c0,1.2,0,2.7,1.4,3.3c0.4,0.2,0.9,0.3,1.4,0.3c0.6,0,1.1-0.1,1.6-0.4v20c-0.1,1.9,1.4,3.5,3.4,3.6
	c1.6,0,2.9-1.2,3.3-2.7c0.3,1.5,1.7,2.7,3.2,2.7c1.9-0.1,3.4-1.7,3.4-3.6v-20c0.5,0.3,1,0.4,1.6,0.4l0,0c0.5,0,0.9-0.1,1.4-0.3
	c1.4-0.6,1.4-2.1,1.4-3.3c0-0.2,0-0.3,0-0.4l0,0L242.3,50.1z"/>
<path class="st0" d="M259,44.3c3.2,0,5.8-2.6,5.8-5.8s-2.6-5.8-5.8-5.8s-5.8,2.6-5.8,5.8c0,0,0,0,0,0
	C253.2,41.7,255.8,44.3,259,44.3z"/>
<path class="st0" d="M269.3,50.1c-0.1-3.7-4.6-5.1-5.7-5.2l0,0c-0.3,0-1.1,0-4.6,0s-4.4,0-4.6,0l0,0c-1.1,0.2-5.6,1.6-5.7,5.2
	L248,64.9V65c0,0.1,0,0.3,0,0.4c0,1.2,0,2.7,1.4,3.3c0.4,0.2,0.9,0.3,1.4,0.3c0.6,0,1.1-0.1,1.6-0.4v20c-0.1,1.9,1.4,3.5,3.4,3.6
	c1.6,0,2.9-1.2,3.3-2.7c0.3,1.5,1.7,2.7,3.2,2.7c1.9-0.1,3.4-1.7,3.4-3.6v-20c0.5,0.3,1,0.4,1.6,0.4l0,0c0.5,0,0.9-0.1,1.4-0.3
	c1.4-0.6,1.4-2.1,1.4-3.3c0-0.2,0-0.3,0-0.4l0,0L269.3,50.1z"/>
<path class="st0" d="M286,44.3c3.2,0,5.8-2.6,5.8-5.8s-2.6-5.8-5.8-5.8s-5.8,2.6-5.8,5.8c0,0,0,0,0,0
	C280.2,41.7,282.8,44.3,286,44.3z"/>
<path class="st0" d="M296.3,50.1c-0.1-3.7-4.6-5.1-5.7-5.2l0,0c-0.3,0-1.1,0-4.6,0s-4.4,0-4.6,0l0,0c-1.1,0.2-5.6,1.6-5.7,5.2
	L275,64.9V65c0,0.1,0,0.3,0,0.4c0,1.2,0,2.7,1.5,3.3c0.4,0.2,0.9,0.3,1.4,0.3c0.6,0,1.1-0.1,1.6-0.4v20c-0.1,1.9,1.4,3.5,3.4,3.6
	c1.6,0,2.9-1.2,3.3-2.7c0.3,1.5,1.7,2.7,3.2,2.7c1.9-0.1,3.4-1.7,3.4-3.6v-20c0.5,0.3,1,0.4,1.6,0.4l0,0c0.5,0,0.9-0.1,1.4-0.3
	c1.4-0.6,1.4-2.1,1.4-3.3c0-0.2,0-0.3,0-0.4l0,0L296.3,50.1z"/>
<path class="st0" d="M313,44.3c3.2,0,5.8-2.6,5.8-5.8s-2.6-5.8-5.8-5.8s-5.8,2.6-5.8,5.8c0,0,0,0,0,0
	C307.2,41.7,309.8,44.3,313,44.3z"/>
<path class="st0" d="M323.3,50.1c-0.1-3.7-4.6-5.1-5.7-5.2l0,0c-0.3,0-1.1,0-4.6,0s-4.4,0-4.6,0l0,0c-1.1,0.2-5.6,1.6-5.7,5.2
	L302,64.9V65c0,0.1,0,0.3,0,0.4c0,1.2,0,2.7,1.5,3.3c0.4,0.2,0.9,0.3,1.4,0.3c0.6,0,1.1-0.1,1.6-0.4v20c-0.1,1.9,1.4,3.5,3.4,3.6
	c1.6,0,2.9-1.2,3.3-2.7c0.3,1.5,1.7,2.7,3.2,2.7c1.9-0.1,3.4-1.7,3.4-3.6v-20c0.5,0.3,1,0.4,1.6,0.4l0,0c0.5,0,0.9-0.1,1.4-0.3
	c1.4-0.6,1.4-2.1,1.4-3.3c0-0.2,0-0.3,0-0.4l0,0L323.3,50.1z"/>
<g class="st2">
	<path class="st0" d="M96.7,128.2h2.6v-7.6c0-0.3,0-0.6,0-0.9l-1.9,1.6c-0.1,0.1-0.2,0.1-0.2,0.1c-0.1,0-0.2,0-0.2,0
		c-0.1,0-0.2,0-0.3-0.1c-0.1-0.1-0.2-0.1-0.2-0.2l-0.7-1l4-3.4h1.8v11.4h2.3v1.7h-7.2V128.2z"/>
	<path class="st0" d="M112,117.9c0,0.2,0,0.4-0.1,0.5s-0.2,0.3-0.3,0.4s-0.3,0.2-0.5,0.3c-0.2,0.1-0.4,0.1-0.6,0.1
		c-0.2,0-0.4,0-0.5-0.1c-0.2-0.1-0.3-0.2-0.4-0.3s-0.2-0.3-0.3-0.4c-0.1-0.2-0.1-0.3-0.1-0.5c0-0.2,0-0.4,0.1-0.6
		c0.1-0.2,0.2-0.3,0.3-0.4s0.3-0.2,0.4-0.3c0.2-0.1,0.4-0.1,0.5-0.1c0.2,0,0.4,0,0.6,0.1c0.2,0.1,0.3,0.2,0.5,0.3s0.2,0.3,0.3,0.4
		C112,117.6,112,117.7,112,117.9z M111.7,120.6v9.2h-2.2v-9.2H111.7z"/>
	<path class="st0" d="M114.2,129.9v-9.2h1.4c0.3,0,0.5,0.1,0.6,0.4l0.2,0.7c0.2-0.2,0.4-0.4,0.6-0.5s0.4-0.3,0.7-0.4
		c0.2-0.1,0.5-0.2,0.7-0.3c0.3-0.1,0.6-0.1,0.9-0.1c0.5,0,1,0.1,1.3,0.3c0.4,0.2,0.7,0.4,1,0.7c0.3,0.3,0.5,0.7,0.6,1.1
		c0.1,0.4,0.2,0.9,0.2,1.4v5.9H120V124c0-0.6-0.1-1-0.4-1.3c-0.3-0.3-0.7-0.5-1.2-0.5c-0.4,0-0.7,0.1-1.1,0.3
		c-0.3,0.2-0.7,0.4-1,0.7v6.7H114.2z"/>
	<path class="st0" d="M129.1,128.2h2.6v-7.6c0-0.3,0-0.6,0-0.9l-1.9,1.6c-0.1,0.1-0.2,0.1-0.2,0.1c-0.1,0-0.2,0-0.2,0
		c-0.1,0-0.2,0-0.3-0.1c-0.1-0.1-0.2-0.1-0.2-0.2l-0.7-1l4-3.4h1.8v11.4h2.3v1.7h-7.2V128.2z"/>
	<path class="st0" d="M147.2,123.4c0,1.1-0.1,2.1-0.4,3s-0.6,1.5-1,2.1c-0.4,0.5-0.9,1-1.5,1.2c-0.6,0.3-1.2,0.4-1.9,0.4
		c-0.7,0-1.3-0.1-1.9-0.4c-0.6-0.3-1.1-0.7-1.5-1.2c-0.4-0.5-0.8-1.2-1-2.1c-0.2-0.8-0.4-1.8-0.4-3c0-1.1,0.1-2.1,0.4-3
		c0.2-0.8,0.6-1.5,1-2.1c0.4-0.5,0.9-1,1.5-1.2c0.6-0.3,1.2-0.4,1.9-0.4c0.7,0,1.3,0.1,1.9,0.4c0.6,0.3,1.1,0.7,1.5,1.2
		c0.4,0.5,0.8,1.2,1,2.1S147.2,122.2,147.2,123.4z M144.9,123.4c0-0.9-0.1-1.7-0.2-2.3c-0.1-0.6-0.3-1.1-0.6-1.5
		c-0.2-0.4-0.5-0.6-0.8-0.8c-0.3-0.1-0.6-0.2-0.9-0.2c-0.3,0-0.6,0.1-0.9,0.2c-0.3,0.1-0.6,0.4-0.8,0.8c-0.2,0.4-0.4,0.9-0.5,1.5
		c-0.1,0.6-0.2,1.4-0.2,2.3c0,0.9,0.1,1.7,0.2,2.3c0.1,0.6,0.3,1.1,0.5,1.5c0.2,0.4,0.5,0.6,0.8,0.8c0.3,0.1,0.6,0.2,0.9,0.2
		c0.3,0,0.6-0.1,0.9-0.2c0.3-0.1,0.6-0.4,0.8-0.8c0.2-0.4,0.4-0.9,0.6-1.5C144.8,125.1,144.9,124.3,144.9,123.4z"/>
	<path class="st0" d="M156.1,120.5c0.6,0,1.1,0.1,1.6,0.3c0.5,0.2,0.9,0.5,1.3,0.8c0.4,0.4,0.6,0.8,0.8,1.3c0.2,0.5,0.3,1.1,0.3,1.8
		c0,0.2,0,0.3,0,0.4c0,0.1,0,0.2-0.1,0.3c0,0.1-0.1,0.1-0.2,0.1c-0.1,0-0.1,0-0.3,0h-5.7c0.1,0.9,0.3,1.6,0.8,2.1s1,0.7,1.8,0.7
		c0.4,0,0.7,0,0.9-0.1c0.3-0.1,0.5-0.2,0.7-0.3c0.2-0.1,0.4-0.2,0.5-0.3s0.3-0.1,0.4-0.1c0.1,0,0.2,0,0.2,0.1c0.1,0,0.1,0.1,0.2,0.2
		l0.6,0.8c-0.2,0.3-0.5,0.5-0.8,0.7c-0.3,0.2-0.6,0.4-1,0.5s-0.7,0.2-1,0.2c-0.3,0-0.7,0.1-1,0.1c-0.6,0-1.2-0.1-1.8-0.3
		c-0.6-0.2-1-0.5-1.4-0.9c-0.4-0.4-0.7-0.9-1-1.5c-0.2-0.6-0.4-1.3-0.4-2.1c0-0.6,0.1-1.2,0.3-1.8c0.2-0.6,0.5-1,0.9-1.4
		c0.4-0.4,0.8-0.7,1.4-1C154.8,120.6,155.4,120.5,156.1,120.5z M156.1,122.1c-0.6,0-1.2,0.2-1.5,0.5c-0.4,0.4-0.6,0.9-0.7,1.6h4.2
		c0-0.3,0-0.6-0.1-0.8c-0.1-0.3-0.2-0.5-0.4-0.7c-0.2-0.2-0.4-0.3-0.6-0.5C156.7,122.1,156.5,122.1,156.1,122.1z"/>
	<path class="st0" d="M161.9,129.9v-9.2h1.4c0.3,0,0.5,0.1,0.6,0.4l0.2,0.7c0.2-0.2,0.4-0.4,0.6-0.5s0.4-0.3,0.7-0.4
		c0.2-0.1,0.5-0.2,0.7-0.3c0.3-0.1,0.6-0.1,0.9-0.1c0.5,0,1,0.1,1.3,0.3c0.4,0.2,0.7,0.4,1,0.7c0.3,0.3,0.5,0.7,0.6,1.1
		c0.1,0.4,0.2,0.9,0.2,1.4v5.9h-2.2V124c0-0.6-0.1-1-0.4-1.3c-0.3-0.3-0.7-0.5-1.2-0.5c-0.4,0-0.7,0.1-1.1,0.3
		c-0.3,0.2-0.7,0.4-1,0.7v6.7H161.9z"/>
	<path class="st0" d="M172.1,129.9v-9.2h1.3c0.2,0,0.4,0,0.5,0.1c0.1,0.1,0.1,0.2,0.2,0.4l0.1,1.1c0.3-0.6,0.7-1,1.2-1.4
		c0.4-0.3,0.9-0.5,1.5-0.5c0.5,0,0.8,0.1,1.1,0.3l-0.3,1.7c0,0.1-0.1,0.2-0.1,0.2s-0.1,0.1-0.2,0.1c-0.1,0-0.2,0-0.4-0.1
		c-0.2,0-0.4-0.1-0.6-0.1c-0.5,0-0.9,0.1-1.2,0.4s-0.6,0.6-0.8,1.1v5.8H172.1z"/>
	<path class="st0" d="M183.4,120.5c0.7,0,1.3,0.1,1.9,0.3s1,0.5,1.4,0.9c0.4,0.4,0.7,0.9,0.9,1.5c0.2,0.6,0.3,1.2,0.3,2
		c0,0.7-0.1,1.4-0.3,2c-0.2,0.6-0.5,1.1-0.9,1.5s-0.9,0.7-1.4,1s-1.2,0.3-1.9,0.3s-1.3-0.1-1.9-0.3s-1-0.5-1.4-1
		c-0.4-0.4-0.7-0.9-0.9-1.5s-0.3-1.2-0.3-2c0-0.7,0.1-1.4,0.3-2c0.2-0.6,0.5-1.1,0.9-1.5c0.4-0.4,0.9-0.7,1.4-0.9
		S182.7,120.5,183.4,120.5z M183.4,128.3c0.8,0,1.3-0.3,1.7-0.8c0.4-0.5,0.6-1.3,0.6-2.3s-0.2-1.8-0.6-2.3c-0.4-0.5-0.9-0.8-1.7-0.8
		c-0.8,0-1.4,0.3-1.7,0.8c-0.4,0.5-0.6,1.3-0.6,2.3s0.2,1.7,0.6,2.3C182.1,128,182.6,128.3,183.4,128.3z"/>
	<path class="st0" d="M192.1,116.5v13.4h-2.2v-13.4H192.1z"/>
	<path class="st0" d="M197,116.5v13.4h-2.2v-13.4H197z"/>
	<path class="st0" d="M203.3,120.5c0.6,0,1.1,0.1,1.6,0.3c0.5,0.2,0.9,0.5,1.3,0.8c0.4,0.4,0.6,0.8,0.8,1.3c0.2,0.5,0.3,1.1,0.3,1.8
		c0,0.2,0,0.3,0,0.4c0,0.1,0,0.2-0.1,0.3c0,0.1-0.1,0.1-0.2,0.1c-0.1,0-0.2,0-0.3,0h-5.7c0.1,0.9,0.3,1.6,0.8,2.1
		c0.4,0.4,1,0.7,1.8,0.7c0.4,0,0.7,0,0.9-0.1s0.5-0.2,0.7-0.3c0.2-0.1,0.4-0.2,0.5-0.3c0.1-0.1,0.3-0.1,0.4-0.1c0.1,0,0.2,0,0.2,0.1
		s0.1,0.1,0.2,0.2l0.6,0.8c-0.2,0.3-0.5,0.5-0.8,0.7c-0.3,0.2-0.6,0.4-1,0.5s-0.7,0.2-1,0.2c-0.3,0-0.7,0.1-1,0.1
		c-0.6,0-1.2-0.1-1.8-0.3c-0.6-0.2-1-0.5-1.4-0.9s-0.7-0.9-1-1.5c-0.2-0.6-0.4-1.3-0.4-2.1c0-0.6,0.1-1.2,0.3-1.8
		c0.2-0.6,0.5-1,0.9-1.4c0.4-0.4,0.8-0.7,1.4-1C202,120.6,202.6,120.5,203.3,120.5z M203.3,122.1c-0.6,0-1.2,0.2-1.5,0.5
		c-0.4,0.4-0.6,0.9-0.7,1.6h4.2c0-0.3,0-0.6-0.1-0.8s-0.2-0.5-0.4-0.7c-0.2-0.2-0.4-0.3-0.6-0.5
		C203.9,122.1,203.7,122.1,203.3,122.1z"/>
	<path class="st0" d="M215.6,129.9c-0.3,0-0.5-0.1-0.6-0.4l-0.2-0.9c-0.2,0.2-0.4,0.4-0.6,0.6c-0.2,0.2-0.4,0.3-0.7,0.5
		c-0.2,0.1-0.5,0.2-0.8,0.3c-0.3,0.1-0.6,0.1-0.9,0.1c-0.5,0-1-0.1-1.4-0.3s-0.8-0.5-1.1-0.9c-0.3-0.4-0.5-0.9-0.7-1.5
		s-0.2-1.3-0.2-2c0-0.7,0.1-1.3,0.3-1.9c0.2-0.6,0.5-1.1,0.8-1.5c0.3-0.4,0.8-0.8,1.2-1c0.5-0.2,1-0.4,1.6-0.4c0.5,0,1,0.1,1.3,0.2
		c0.4,0.2,0.7,0.4,1,0.7v-4.9h2.2v13.4H215.6z M212.6,128.2c0.5,0,0.9-0.1,1.2-0.3c0.3-0.2,0.6-0.5,0.9-0.8V123
		c-0.3-0.3-0.5-0.5-0.8-0.6s-0.6-0.2-1-0.2c-0.3,0-0.6,0.1-0.9,0.2s-0.5,0.3-0.7,0.6c-0.2,0.3-0.3,0.6-0.4,1
		c-0.1,0.4-0.2,0.9-0.2,1.4c0,0.5,0,1,0.1,1.4c0.1,0.4,0.2,0.7,0.4,0.9c0.2,0.2,0.4,0.4,0.6,0.5
		C212.1,128.2,212.3,128.2,212.6,128.2z"/>
	<path class="st0" d="M230.1,129.9h-1c-0.2,0-0.4,0-0.5-0.1c-0.1-0.1-0.2-0.2-0.3-0.4l-0.2-0.7c-0.2,0.2-0.5,0.4-0.7,0.6
		c-0.2,0.2-0.5,0.3-0.7,0.4c-0.2,0.1-0.5,0.2-0.8,0.2c-0.3,0.1-0.6,0.1-0.9,0.1c-0.4,0-0.8-0.1-1.1-0.2c-0.3-0.1-0.6-0.3-0.9-0.5
		c-0.2-0.2-0.4-0.5-0.6-0.8c-0.1-0.3-0.2-0.7-0.2-1.1c0-0.3,0.1-0.7,0.3-1s0.5-0.6,0.9-0.9c0.4-0.3,1-0.5,1.7-0.7
		c0.7-0.2,1.6-0.3,2.6-0.3v-0.5c0-0.6-0.1-1.1-0.4-1.4c-0.3-0.3-0.6-0.4-1.1-0.4c-0.4,0-0.7,0-0.9,0.1c-0.2,0.1-0.4,0.2-0.6,0.3
		c-0.2,0.1-0.3,0.2-0.5,0.3c-0.1,0.1-0.3,0.1-0.5,0.1c-0.2,0-0.3,0-0.4-0.1c-0.1-0.1-0.2-0.2-0.3-0.3l-0.4-0.7
		c1.1-1,2.3-1.5,3.8-1.5c0.5,0,1,0.1,1.4,0.3c0.4,0.2,0.8,0.4,1.1,0.7c0.3,0.3,0.5,0.7,0.7,1.1c0.2,0.4,0.2,0.9,0.2,1.4V129.9z
		 M225.7,128.5c0.2,0,0.4,0,0.6-0.1c0.2,0,0.4-0.1,0.5-0.2c0.2-0.1,0.3-0.2,0.5-0.3c0.2-0.1,0.3-0.3,0.5-0.4V126
		c-0.6,0-1.2,0-1.6,0.1c-0.4,0.1-0.8,0.2-1,0.3c-0.3,0.1-0.5,0.3-0.6,0.4c-0.1,0.2-0.2,0.4-0.2,0.6c0,0.4,0.1,0.7,0.3,0.8
		C225.1,128.4,225.4,128.5,225.7,128.5z"/>
	<path class="st0" d="M235.3,130c-0.8,0-1.4-0.2-1.8-0.7s-0.6-1.1-0.6-1.9v-5.2h-0.9c-0.1,0-0.2,0-0.3-0.1c-0.1-0.1-0.1-0.2-0.1-0.4
		V121l1.5-0.2l0.5-2.5c0-0.1,0.1-0.2,0.2-0.3c0.1-0.1,0.2-0.1,0.3-0.1h1.2v2.9h2.4v1.6H235v5c0,0.3,0.1,0.5,0.2,0.7s0.3,0.2,0.6,0.2
		c0.1,0,0.3,0,0.3,0c0.1,0,0.2-0.1,0.2-0.1c0.1,0,0.1-0.1,0.2-0.1c0.1,0,0.1,0,0.2,0c0.1,0,0.1,0,0.2,0s0.1,0.1,0.1,0.1l0.7,1.1
		c-0.3,0.3-0.7,0.5-1.1,0.6C236.2,129.9,235.7,130,235.3,130z"/>
	<path class="st0" d="M249.9,129.9h-1c-0.2,0-0.4,0-0.5-0.1c-0.1-0.1-0.2-0.2-0.3-0.4l-0.2-0.7c-0.2,0.2-0.5,0.4-0.7,0.6
		c-0.2,0.2-0.5,0.3-0.7,0.4c-0.2,0.1-0.5,0.2-0.8,0.2c-0.3,0.1-0.6,0.1-0.9,0.1c-0.4,0-0.8-0.1-1.1-0.2c-0.3-0.1-0.6-0.3-0.9-0.5
		c-0.2-0.2-0.4-0.5-0.6-0.8c-0.1-0.3-0.2-0.7-0.2-1.1c0-0.3,0.1-0.7,0.3-1c0.2-0.3,0.5-0.6,0.9-0.9c0.4-0.3,1-0.5,1.7-0.7
		s1.6-0.3,2.6-0.3v-0.5c0-0.6-0.1-1.1-0.4-1.4c-0.3-0.3-0.6-0.4-1.1-0.4c-0.4,0-0.7,0-0.9,0.1c-0.2,0.1-0.4,0.2-0.6,0.3
		c-0.2,0.1-0.3,0.2-0.5,0.3s-0.3,0.1-0.5,0.1c-0.1,0-0.3,0-0.4-0.1s-0.2-0.2-0.3-0.3l-0.4-0.7c1.1-1,2.3-1.5,3.8-1.5
		c0.5,0,1,0.1,1.4,0.3c0.4,0.2,0.8,0.4,1.1,0.7c0.3,0.3,0.5,0.7,0.7,1.1c0.2,0.4,0.2,0.9,0.2,1.4V129.9z M245.6,128.5
		c0.2,0,0.4,0,0.6-0.1c0.2,0,0.4-0.1,0.5-0.2c0.2-0.1,0.3-0.2,0.5-0.3s0.3-0.3,0.5-0.4V126c-0.6,0-1.2,0-1.6,0.1
		c-0.4,0.1-0.8,0.2-1,0.3s-0.5,0.3-0.6,0.4c-0.1,0.2-0.2,0.4-0.2,0.6c0,0.4,0.1,0.7,0.3,0.8S245.2,128.5,245.6,128.5z"/>
	<path class="st0" d="M258.2,125.3v4.6h-2.4v-13h4.2c0.9,0,1.6,0.1,2.3,0.3s1.2,0.5,1.6,0.9c0.4,0.4,0.7,0.8,0.9,1.3
		c0.2,0.5,0.3,1.1,0.3,1.7c0,0.6-0.1,1.2-0.3,1.7c-0.2,0.5-0.5,1-0.9,1.4s-0.9,0.7-1.6,0.9c-0.6,0.2-1.4,0.3-2.2,0.3H258.2z
		 M258.2,123.4h1.8c0.4,0,0.8-0.1,1.2-0.2c0.3-0.1,0.6-0.3,0.8-0.5s0.4-0.5,0.5-0.8c0.1-0.3,0.2-0.6,0.2-1c0-0.3-0.1-0.7-0.2-0.9
		c-0.1-0.3-0.3-0.5-0.5-0.7c-0.2-0.2-0.5-0.3-0.8-0.5c-0.3-0.1-0.7-0.2-1.2-0.2h-1.8V123.4z"/>
	<path class="st0" d="M275.9,126.8c0.1,0,0.2,0.1,0.3,0.2l1,1c-0.5,0.7-1.2,1.2-1.9,1.5c-0.8,0.3-1.7,0.5-2.8,0.5
		c-1,0-1.8-0.2-2.6-0.5c-0.8-0.3-1.4-0.8-2-1.4c-0.5-0.6-1-1.3-1.3-2.1s-0.4-1.7-0.4-2.7c0-1,0.2-1.9,0.5-2.7
		c0.3-0.8,0.8-1.5,1.4-2.1s1.3-1,2.1-1.4c0.8-0.3,1.7-0.5,2.7-0.5c1,0,1.8,0.2,2.5,0.5c0.7,0.3,1.3,0.7,1.9,1.2l-0.8,1.1
		c0,0.1-0.1,0.1-0.2,0.2c-0.1,0.1-0.2,0.1-0.3,0.1c-0.1,0-0.3-0.1-0.4-0.2c-0.1-0.1-0.3-0.2-0.5-0.4c-0.2-0.1-0.5-0.2-0.8-0.4
		c-0.3-0.1-0.8-0.2-1.3-0.2c-0.6,0-1.2,0.1-1.7,0.3c-0.5,0.2-1,0.5-1.3,0.9c-0.4,0.4-0.7,0.9-0.9,1.4c-0.2,0.6-0.3,1.2-0.3,1.9
		c0,0.7,0.1,1.4,0.3,2c0.2,0.6,0.5,1,0.8,1.4c0.4,0.4,0.8,0.7,1.3,0.9s1,0.3,1.5,0.3c0.3,0,0.6,0,0.9-0.1s0.5-0.1,0.7-0.2
		c0.2-0.1,0.4-0.2,0.6-0.3s0.4-0.3,0.6-0.5c0.1-0.1,0.1-0.1,0.2-0.1C275.8,126.8,275.8,126.8,275.9,126.8z"/>
	<path class="st0" d="M288,126.8c0.1,0,0.2,0.1,0.3,0.2l1,1c-0.5,0.7-1.2,1.2-1.9,1.5s-1.7,0.5-2.8,0.5c-1,0-1.8-0.2-2.6-0.5
		s-1.4-0.8-2-1.4c-0.5-0.6-1-1.3-1.3-2.1s-0.4-1.7-0.4-2.7c0-1,0.2-1.9,0.5-2.7c0.3-0.8,0.8-1.5,1.4-2.1c0.6-0.6,1.3-1,2.1-1.4
		c0.8-0.3,1.7-0.5,2.7-0.5c1,0,1.8,0.2,2.5,0.5c0.7,0.3,1.3,0.7,1.9,1.2l-0.8,1.1c0,0.1-0.1,0.1-0.2,0.2c-0.1,0.1-0.2,0.1-0.3,0.1
		c-0.1,0-0.3-0.1-0.4-0.2c-0.1-0.1-0.3-0.2-0.5-0.4c-0.2-0.1-0.5-0.2-0.8-0.4c-0.3-0.1-0.8-0.2-1.3-0.2c-0.6,0-1.2,0.1-1.7,0.3
		c-0.5,0.2-1,0.5-1.3,0.9c-0.4,0.4-0.7,0.9-0.9,1.4c-0.2,0.6-0.3,1.2-0.3,1.9c0,0.7,0.1,1.4,0.3,2c0.2,0.6,0.5,1,0.8,1.4
		c0.4,0.4,0.8,0.7,1.3,0.9c0.5,0.2,1,0.3,1.5,0.3c0.3,0,0.6,0,0.9-0.1c0.3,0,0.5-0.1,0.7-0.2c0.2-0.1,0.4-0.2,0.6-0.3
		s0.4-0.3,0.6-0.5c0.1-0.1,0.1-0.1,0.2-0.1S287.9,126.8,288,126.8z"/>
</g>
<g class="st2">
	<path class="st0" d="M96.1,150.9h-1c-0.2,0-0.4,0-0.5-0.1c-0.1-0.1-0.2-0.2-0.3-0.4l-0.2-0.7c-0.2,0.2-0.5,0.4-0.7,0.6
		c-0.2,0.2-0.5,0.3-0.7,0.4c-0.2,0.1-0.5,0.2-0.8,0.2c-0.3,0.1-0.6,0.1-0.9,0.1c-0.4,0-0.8-0.1-1.1-0.2c-0.3-0.1-0.6-0.3-0.9-0.5
		c-0.2-0.2-0.4-0.5-0.6-0.8c-0.1-0.3-0.2-0.7-0.2-1.1c0-0.3,0.1-0.7,0.3-1s0.5-0.6,0.9-0.9c0.4-0.3,1-0.5,1.7-0.7
		c0.7-0.2,1.6-0.3,2.6-0.3v-0.5c0-0.6-0.1-1.1-0.4-1.4c-0.3-0.3-0.6-0.4-1.1-0.4c-0.4,0-0.7,0-0.9,0.1c-0.2,0.1-0.4,0.2-0.6,0.3
		c-0.2,0.1-0.3,0.2-0.5,0.3s-0.3,0.1-0.5,0.1c-0.1,0-0.3,0-0.4-0.1s-0.2-0.2-0.3-0.3l-0.4-0.7c1.1-1,2.3-1.5,3.8-1.5
		c0.5,0,1,0.1,1.4,0.3c0.4,0.2,0.8,0.4,1.1,0.7c0.3,0.3,0.5,0.7,0.7,1.1c0.2,0.4,0.2,0.9,0.2,1.4V150.9z M91.8,149.5
		c0.2,0,0.4,0,0.6-0.1c0.2,0,0.4-0.1,0.5-0.2c0.2-0.1,0.3-0.2,0.5-0.3s0.3-0.3,0.5-0.4V147c-0.6,0-1.2,0-1.6,0.1
		c-0.4,0.1-0.8,0.2-1,0.3s-0.5,0.3-0.6,0.4c-0.1,0.2-0.2,0.4-0.2,0.6c0,0.4,0.1,0.7,0.3,0.8C91.1,149.4,91.4,149.5,91.8,149.5z"/>
	<path class="st0" d="M98.3,150.9v-9.2h1.3c0.2,0,0.4,0,0.5,0.1c0.1,0.1,0.1,0.2,0.2,0.4l0.1,1.1c0.3-0.6,0.7-1,1.2-1.4
		c0.4-0.3,0.9-0.5,1.5-0.5c0.5,0,0.8,0.1,1.1,0.3l-0.3,1.7c0,0.1-0.1,0.2-0.1,0.2s-0.1,0.1-0.2,0.1c-0.1,0-0.2,0-0.4-0.1
		c-0.2,0-0.4-0.1-0.6-0.1c-0.5,0-0.9,0.1-1.2,0.4s-0.6,0.6-0.8,1.1v5.8H98.3z"/>
	<path class="st0" d="M109.4,141.5c0.6,0,1.1,0.1,1.6,0.3c0.5,0.2,0.9,0.5,1.3,0.8c0.4,0.4,0.6,0.8,0.8,1.3c0.2,0.5,0.3,1.1,0.3,1.8
		c0,0.2,0,0.3,0,0.4c0,0.1,0,0.2-0.1,0.3c0,0.1-0.1,0.1-0.2,0.1c-0.1,0-0.1,0-0.3,0h-5.7c0.1,0.9,0.3,1.6,0.8,2.1s1,0.7,1.8,0.7
		c0.4,0,0.7,0,0.9-0.1c0.3-0.1,0.5-0.2,0.7-0.3c0.2-0.1,0.4-0.2,0.5-0.3s0.3-0.1,0.4-0.1c0.1,0,0.2,0,0.2,0.1c0.1,0,0.1,0.1,0.2,0.2
		l0.6,0.8c-0.2,0.3-0.5,0.5-0.8,0.7c-0.3,0.2-0.6,0.4-1,0.5s-0.7,0.2-1,0.2c-0.3,0-0.7,0.1-1,0.1c-0.6,0-1.2-0.1-1.8-0.3
		c-0.6-0.2-1-0.5-1.4-0.9c-0.4-0.4-0.7-0.9-1-1.5c-0.2-0.6-0.4-1.3-0.4-2.1c0-0.6,0.1-1.2,0.3-1.8c0.2-0.6,0.5-1,0.9-1.4
		c0.4-0.4,0.8-0.7,1.4-1C108.1,141.6,108.8,141.5,109.4,141.5z M109.5,143.1c-0.6,0-1.2,0.2-1.5,0.5c-0.4,0.4-0.6,0.9-0.7,1.6h4.2
		c0-0.3,0-0.6-0.1-0.8c-0.1-0.3-0.2-0.5-0.4-0.7c-0.2-0.2-0.4-0.3-0.6-0.5C110.1,143.1,109.8,143.1,109.5,143.1z"/>
</g>
<g class="st2">
	<path class="st1" d="M121.4,138.9c0,0.2,0,0.4-0.1,0.5s-0.2,0.3-0.3,0.4s-0.3,0.2-0.5,0.3c-0.2,0.1-0.4,0.1-0.6,0.1
		c-0.2,0-0.4,0-0.5-0.1c-0.2-0.1-0.3-0.2-0.4-0.3s-0.2-0.3-0.3-0.4c-0.1-0.2-0.1-0.3-0.1-0.5c0-0.2,0-0.4,0.1-0.6
		c0.1-0.2,0.2-0.3,0.3-0.4s0.3-0.2,0.4-0.3c0.2-0.1,0.4-0.1,0.5-0.1c0.2,0,0.4,0,0.6,0.1c0.2,0.1,0.3,0.2,0.5,0.3s0.2,0.3,0.3,0.4
		C121.4,138.6,121.4,138.7,121.4,138.9z M121.1,141.6v9.2h-2.2v-9.2H121.1z"/>
	<path class="st1" d="M123.6,150.9v-9.2h1.4c0.3,0,0.5,0.1,0.6,0.4l0.2,0.7c0.2-0.2,0.4-0.4,0.6-0.5s0.4-0.3,0.7-0.4
		c0.2-0.1,0.5-0.2,0.7-0.3c0.3-0.1,0.6-0.1,0.9-0.1c0.5,0,1,0.1,1.3,0.3c0.4,0.2,0.7,0.4,1,0.7c0.3,0.3,0.5,0.7,0.6,1.1
		c0.1,0.4,0.2,0.9,0.2,1.4v5.9h-2.2V145c0-0.6-0.1-1-0.4-1.3c-0.3-0.3-0.7-0.5-1.2-0.5c-0.4,0-0.7,0.1-1.1,0.3
		c-0.3,0.2-0.7,0.4-1,0.7v6.7H123.6z"/>
	<path class="st1" d="M136.9,151c-0.8,0-1.4-0.2-1.8-0.7s-0.6-1.1-0.6-1.9v-5.2h-0.9c-0.1,0-0.2,0-0.3-0.1c-0.1-0.1-0.1-0.2-0.1-0.4
		V142l1.5-0.2l0.5-2.5c0-0.1,0.1-0.2,0.2-0.3c0.1-0.1,0.2-0.1,0.3-0.1h1.2v2.9h2.4v1.6h-2.4v5c0,0.3,0.1,0.5,0.2,0.7
		s0.3,0.2,0.6,0.2c0.1,0,0.3,0,0.3,0c0.1,0,0.2-0.1,0.2-0.1s0.1-0.1,0.2-0.1c0.1,0,0.1,0,0.2,0c0.1,0,0.1,0,0.2,0s0.1,0.1,0.1,0.1
		l0.7,1.1c-0.3,0.3-0.7,0.5-1.1,0.6C137.8,150.9,137.3,151,136.9,151z"/>
	<path class="st1" d="M144.6,141.5c0.6,0,1.1,0.1,1.6,0.3c0.5,0.2,0.9,0.5,1.3,0.8c0.4,0.4,0.6,0.8,0.8,1.3c0.2,0.5,0.3,1.1,0.3,1.8
		c0,0.2,0,0.3,0,0.4c0,0.1,0,0.2-0.1,0.3c0,0.1-0.1,0.1-0.2,0.1c-0.1,0-0.1,0-0.3,0h-5.7c0.1,0.9,0.3,1.6,0.8,2.1s1,0.7,1.8,0.7
		c0.4,0,0.7,0,0.9-0.1c0.3-0.1,0.5-0.2,0.7-0.3c0.2-0.1,0.4-0.2,0.5-0.3s0.3-0.1,0.4-0.1c0.1,0,0.2,0,0.2,0.1c0.1,0,0.1,0.1,0.2,0.2
		l0.6,0.8c-0.2,0.3-0.5,0.5-0.8,0.7c-0.3,0.2-0.6,0.4-1,0.5s-0.7,0.2-1,0.2c-0.3,0-0.7,0.1-1,0.1c-0.6,0-1.2-0.1-1.8-0.3
		c-0.6-0.2-1-0.5-1.4-0.9c-0.4-0.4-0.7-0.9-1-1.5c-0.2-0.6-0.4-1.3-0.4-2.1c0-0.6,0.1-1.2,0.3-1.8c0.2-0.6,0.5-1,0.9-1.4
		c0.4-0.4,0.8-0.7,1.4-1C143.3,141.6,143.9,141.5,144.6,141.5z M144.7,143.1c-0.6,0-1.2,0.2-1.5,0.5c-0.4,0.4-0.6,0.9-0.7,1.6h4.2
		c0-0.3,0-0.6-0.1-0.8c-0.1-0.3-0.2-0.5-0.4-0.7c-0.2-0.2-0.4-0.3-0.6-0.5C145.3,143.1,145,143.1,144.7,143.1z"/>
	<path class="st1" d="M150.4,150.9v-9.2h1.3c0.2,0,0.4,0,0.5,0.1c0.1,0.1,0.1,0.2,0.2,0.4l0.1,1.1c0.3-0.6,0.7-1,1.2-1.4
		c0.4-0.3,0.9-0.5,1.5-0.5c0.5,0,0.8,0.1,1.1,0.3l-0.3,1.7c0,0.1-0.1,0.2-0.1,0.2s-0.1,0.1-0.2,0.1c-0.1,0-0.2,0-0.4-0.1
		c-0.2,0-0.4-0.1-0.6-0.1c-0.5,0-0.9,0.1-1.2,0.4s-0.6,0.6-0.8,1.1v5.8H150.4z"/>
	<path class="st1" d="M157.8,150.9v-9.2h1.4c0.3,0,0.5,0.1,0.6,0.4l0.2,0.7c0.2-0.2,0.4-0.4,0.6-0.5s0.4-0.3,0.7-0.4
		c0.2-0.1,0.5-0.2,0.7-0.3c0.3-0.1,0.6-0.1,0.9-0.1c0.5,0,1,0.1,1.3,0.3c0.4,0.2,0.7,0.4,1,0.7c0.3,0.3,0.5,0.7,0.6,1.1
		c0.1,0.4,0.2,0.9,0.2,1.4v5.9h-2.2V145c0-0.6-0.1-1-0.4-1.3c-0.3-0.3-0.7-0.5-1.2-0.5c-0.4,0-0.7,0.1-1.1,0.3
		c-0.3,0.2-0.7,0.4-1,0.7v6.7H157.8z"/>
	<path class="st1" d="M175.2,150.9h-1c-0.2,0-0.4,0-0.5-0.1c-0.1-0.1-0.2-0.2-0.3-0.4l-0.2-0.7c-0.2,0.2-0.5,0.4-0.7,0.6
		c-0.2,0.2-0.5,0.3-0.7,0.4c-0.2,0.1-0.5,0.2-0.8,0.2c-0.3,0.1-0.6,0.1-0.9,0.1c-0.4,0-0.8-0.1-1.1-0.2c-0.3-0.1-0.6-0.3-0.9-0.5
		c-0.2-0.2-0.4-0.5-0.6-0.8c-0.1-0.3-0.2-0.7-0.2-1.1c0-0.3,0.1-0.7,0.3-1s0.5-0.6,0.9-0.9c0.4-0.3,1-0.5,1.7-0.7
		c0.7-0.2,1.6-0.3,2.6-0.3v-0.5c0-0.6-0.1-1.1-0.4-1.4c-0.3-0.3-0.6-0.4-1.1-0.4c-0.4,0-0.7,0-0.9,0.1c-0.2,0.1-0.4,0.2-0.6,0.3
		c-0.2,0.1-0.3,0.2-0.5,0.3s-0.3,0.1-0.5,0.1c-0.1,0-0.3,0-0.4-0.1s-0.2-0.2-0.3-0.3l-0.4-0.7c1.1-1,2.3-1.5,3.8-1.5
		c0.5,0,1,0.1,1.4,0.3c0.4,0.2,0.8,0.4,1.1,0.7c0.3,0.3,0.5,0.7,0.7,1.1c0.2,0.4,0.2,0.9,0.2,1.4V150.9z M170.9,149.5
		c0.2,0,0.4,0,0.6-0.1c0.2,0,0.4-0.1,0.5-0.2c0.2-0.1,0.3-0.2,0.5-0.3s0.3-0.3,0.5-0.4V147c-0.6,0-1.2,0-1.6,0.1
		c-0.4,0.1-0.8,0.2-1,0.3s-0.5,0.3-0.6,0.4c-0.1,0.2-0.2,0.4-0.2,0.6c0,0.4,0.1,0.7,0.3,0.8C170.3,149.4,170.6,149.5,170.9,149.5z"
		/>
	<path class="st1" d="M180.5,151c-0.8,0-1.4-0.2-1.8-0.7s-0.6-1.1-0.6-1.9v-5.2H177c-0.1,0-0.2,0-0.3-0.1c-0.1-0.1-0.1-0.2-0.1-0.4
		V142l1.5-0.2l0.5-2.5c0-0.1,0.1-0.2,0.2-0.3c0.1-0.1,0.2-0.1,0.3-0.1h1.2v2.9h2.4v1.6h-2.4v5c0,0.3,0.1,0.5,0.2,0.7
		s0.3,0.2,0.6,0.2c0.1,0,0.3,0,0.3,0c0.1,0,0.2-0.1,0.2-0.1s0.1-0.1,0.2-0.1c0.1,0,0.1,0,0.2,0c0.1,0,0.1,0,0.2,0s0.1,0.1,0.1,0.1
		l0.7,1.1c-0.3,0.3-0.7,0.5-1.1,0.6C181.4,150.9,180.9,151,180.5,151z"/>
	<path class="st1" d="M187.1,138.9c0,0.2,0,0.4-0.1,0.5s-0.2,0.3-0.3,0.4s-0.3,0.2-0.5,0.3c-0.2,0.1-0.4,0.1-0.6,0.1
		c-0.2,0-0.4,0-0.5-0.1c-0.2-0.1-0.3-0.2-0.4-0.3s-0.2-0.3-0.3-0.4c-0.1-0.2-0.1-0.3-0.1-0.5c0-0.2,0-0.4,0.1-0.6
		c0.1-0.2,0.2-0.3,0.3-0.4s0.3-0.2,0.4-0.3c0.2-0.1,0.4-0.1,0.5-0.1c0.2,0,0.4,0,0.6,0.1c0.2,0.1,0.3,0.2,0.5,0.3s0.2,0.3,0.3,0.4
		C187.1,138.6,187.1,138.7,187.1,138.9z M186.8,141.6v9.2h-2.2v-9.2H186.8z"/>
	<path class="st1" d="M193.2,141.5c0.7,0,1.3,0.1,1.9,0.3s1,0.5,1.4,0.9c0.4,0.4,0.7,0.9,0.9,1.5c0.2,0.6,0.3,1.2,0.3,2
		c0,0.7-0.1,1.4-0.3,2s-0.5,1.1-0.9,1.5s-0.9,0.7-1.4,1s-1.2,0.3-1.9,0.3c-0.7,0-1.3-0.1-1.9-0.3s-1-0.5-1.4-1
		c-0.4-0.4-0.7-0.9-0.9-1.5s-0.3-1.2-0.3-2c0-0.7,0.1-1.4,0.3-2c0.2-0.6,0.5-1.1,0.9-1.5c0.4-0.4,0.9-0.7,1.4-0.9
		S192.5,141.5,193.2,141.5z M193.2,149.3c0.8,0,1.3-0.3,1.7-0.8c0.4-0.5,0.6-1.3,0.6-2.3s-0.2-1.8-0.6-2.3c-0.4-0.5-0.9-0.8-1.7-0.8
		c-0.8,0-1.4,0.3-1.7,0.8c-0.4,0.5-0.6,1.3-0.6,2.3s0.2,1.7,0.6,2.3C191.9,149,192.4,149.3,193.2,149.3z"/>
	<path class="st1" d="M199.5,150.9v-9.2h1.4c0.3,0,0.5,0.1,0.6,0.4l0.2,0.7c0.2-0.2,0.4-0.4,0.6-0.5s0.4-0.3,0.7-0.4
		c0.2-0.1,0.5-0.2,0.7-0.3c0.3-0.1,0.6-0.1,0.9-0.1c0.5,0,1,0.1,1.3,0.3c0.4,0.2,0.7,0.4,1,0.7c0.3,0.3,0.5,0.7,0.6,1.1
		c0.1,0.4,0.2,0.9,0.2,1.4v5.9h-2.2V145c0-0.6-0.1-1-0.4-1.3c-0.3-0.3-0.7-0.5-1.2-0.5c-0.4,0-0.7,0.1-1.1,0.3
		c-0.3,0.2-0.7,0.4-1,0.7v6.7H199.5z"/>
	<path class="st1" d="M217,150.9h-1c-0.2,0-0.4,0-0.5-0.1c-0.1-0.1-0.2-0.2-0.3-0.4l-0.2-0.7c-0.2,0.2-0.5,0.4-0.7,0.6
		c-0.2,0.2-0.5,0.3-0.7,0.4c-0.2,0.1-0.5,0.2-0.8,0.2c-0.3,0.1-0.6,0.1-0.9,0.1c-0.4,0-0.8-0.1-1.1-0.2c-0.3-0.1-0.6-0.3-0.8-0.5
		c-0.2-0.2-0.4-0.5-0.6-0.8c-0.1-0.3-0.2-0.7-0.2-1.1c0-0.3,0.1-0.7,0.3-1s0.5-0.6,0.9-0.9c0.4-0.3,1-0.5,1.7-0.7
		c0.7-0.2,1.6-0.3,2.6-0.3v-0.5c0-0.6-0.1-1.1-0.4-1.4c-0.3-0.3-0.6-0.4-1.1-0.4c-0.4,0-0.7,0-0.9,0.1c-0.2,0.1-0.4,0.2-0.6,0.3
		c-0.2,0.1-0.3,0.2-0.5,0.3c-0.2,0.1-0.3,0.1-0.5,0.1c-0.1,0-0.3,0-0.4-0.1c-0.1-0.1-0.2-0.2-0.3-0.3l-0.4-0.7
		c1.1-1,2.3-1.5,3.8-1.5c0.5,0,1,0.1,1.4,0.3s0.8,0.4,1.1,0.7c0.3,0.3,0.5,0.7,0.7,1.1c0.2,0.4,0.2,0.9,0.2,1.4V150.9z M212.7,149.5
		c0.2,0,0.4,0,0.6-0.1c0.2,0,0.4-0.1,0.5-0.2c0.2-0.1,0.3-0.2,0.5-0.3c0.2-0.1,0.3-0.3,0.5-0.4V147c-0.6,0-1.2,0-1.6,0.1
		c-0.4,0.1-0.8,0.2-1,0.3c-0.3,0.1-0.5,0.3-0.6,0.4c-0.1,0.2-0.2,0.4-0.2,0.6c0,0.4,0.1,0.7,0.3,0.8
		C212,149.4,212.3,149.5,212.7,149.5z"/>
	<path class="st1" d="M221.5,137.5v13.4h-2.2v-13.4H221.5z"/>
	<path class="st1" d="M233,143.4c-0.1,0.1-0.1,0.2-0.2,0.2s-0.2,0.1-0.3,0.1c-0.1,0-0.2,0-0.3-0.1c-0.1-0.1-0.3-0.1-0.4-0.2
		c-0.2-0.1-0.3-0.1-0.6-0.2s-0.5-0.1-0.7-0.1c-0.4,0-0.8,0.1-1,0.3c-0.3,0.2-0.4,0.4-0.4,0.7c0,0.2,0.1,0.4,0.2,0.5
		c0.1,0.1,0.3,0.3,0.5,0.4c0.2,0.1,0.5,0.2,0.7,0.3s0.5,0.2,0.8,0.3c0.3,0.1,0.6,0.2,0.8,0.3c0.3,0.1,0.5,0.3,0.7,0.5
		c0.2,0.2,0.4,0.4,0.5,0.7c0.1,0.3,0.2,0.6,0.2,1c0,0.4-0.1,0.9-0.2,1.2s-0.4,0.7-0.7,1c-0.3,0.3-0.7,0.5-1.2,0.6
		c-0.5,0.2-1,0.2-1.6,0.2c-0.3,0-0.6,0-0.9-0.1c-0.3-0.1-0.6-0.1-0.9-0.2c-0.3-0.1-0.5-0.2-0.8-0.4s-0.4-0.3-0.6-0.5l0.5-0.8
		c0.1-0.1,0.1-0.2,0.2-0.2c0.1-0.1,0.2-0.1,0.3-0.1c0.1,0,0.3,0,0.4,0.1s0.3,0.2,0.4,0.3s0.4,0.2,0.6,0.3c0.2,0.1,0.5,0.1,0.8,0.1
		c0.3,0,0.5,0,0.7-0.1c0.2-0.1,0.3-0.1,0.5-0.2c0.1-0.1,0.2-0.2,0.3-0.4c0.1-0.1,0.1-0.3,0.1-0.4c0-0.2-0.1-0.4-0.2-0.5
		c-0.1-0.1-0.3-0.3-0.5-0.4s-0.5-0.2-0.7-0.3s-0.6-0.2-0.8-0.3s-0.6-0.2-0.8-0.3c-0.3-0.1-0.5-0.3-0.7-0.5s-0.4-0.4-0.5-0.7
		s-0.2-0.6-0.2-1c0-0.4,0.1-0.7,0.2-1.1c0.2-0.3,0.4-0.6,0.7-0.9s0.7-0.5,1.1-0.6s0.9-0.2,1.5-0.2c0.6,0,1.2,0.1,1.7,0.3
		c0.5,0.2,1,0.5,1.3,0.8L233,143.4z"/>
	<path class="st1" d="M238.4,151c-0.8,0-1.4-0.2-1.8-0.7c-0.4-0.5-0.6-1.1-0.6-1.9v-5.2H235c-0.1,0-0.2,0-0.3-0.1
		c-0.1-0.1-0.1-0.2-0.1-0.4V142l1.5-0.2l0.5-2.5c0-0.1,0.1-0.2,0.2-0.3c0.1-0.1,0.2-0.1,0.3-0.1h1.2v2.9h2.4v1.6h-2.4v5
		c0,0.3,0.1,0.5,0.2,0.7c0.1,0.2,0.3,0.2,0.6,0.2c0.1,0,0.3,0,0.3,0s0.2-0.1,0.2-0.1s0.1-0.1,0.2-0.1s0.1,0,0.2,0c0.1,0,0.1,0,0.2,0
		c0,0,0.1,0.1,0.1,0.1l0.7,1.1c-0.3,0.3-0.7,0.5-1.1,0.6C239.3,150.9,238.9,151,238.4,151z"/>
	<path class="st1" d="M244.4,141.6v5.9c0,0.6,0.1,1,0.4,1.3c0.3,0.3,0.7,0.5,1.2,0.5c0.4,0,0.7-0.1,1.1-0.3c0.3-0.2,0.7-0.4,1-0.7
		v-6.7h2.2v9.2h-1.4c-0.3,0-0.5-0.1-0.6-0.4l-0.2-0.7c-0.2,0.2-0.4,0.4-0.6,0.5c-0.2,0.2-0.4,0.3-0.7,0.4c-0.2,0.1-0.5,0.2-0.7,0.3
		c-0.3,0.1-0.6,0.1-0.9,0.1c-0.5,0-0.9-0.1-1.3-0.3s-0.7-0.4-1-0.7s-0.5-0.7-0.6-1.1c-0.1-0.4-0.2-0.9-0.2-1.4v-5.9H244.4z"/>
	<path class="st1" d="M259.1,150.9c-0.3,0-0.5-0.1-0.6-0.4l-0.2-0.9c-0.2,0.2-0.4,0.4-0.6,0.6s-0.4,0.3-0.7,0.5
		c-0.2,0.1-0.5,0.2-0.8,0.3c-0.3,0.1-0.6,0.1-0.9,0.1c-0.5,0-1-0.1-1.4-0.3s-0.8-0.5-1.1-0.9c-0.3-0.4-0.5-0.9-0.7-1.5
		c-0.2-0.6-0.2-1.3-0.2-2c0-0.7,0.1-1.3,0.3-1.9c0.2-0.6,0.5-1.1,0.8-1.5c0.3-0.4,0.8-0.8,1.3-1c0.5-0.2,1-0.4,1.6-0.4
		c0.5,0,1,0.1,1.3,0.2c0.4,0.2,0.7,0.4,1,0.7v-4.9h2.2v13.4H259.1z M256.1,149.2c0.5,0,0.9-0.1,1.2-0.3c0.3-0.2,0.6-0.5,0.9-0.8V144
		c-0.3-0.3-0.5-0.5-0.8-0.6s-0.6-0.2-1-0.2c-0.3,0-0.6,0.1-0.9,0.2c-0.3,0.1-0.5,0.3-0.7,0.6s-0.3,0.6-0.4,1s-0.2,0.9-0.2,1.4
		c0,0.5,0,1,0.1,1.4s0.2,0.7,0.4,0.9c0.2,0.2,0.4,0.4,0.6,0.5C255.6,149.2,255.8,149.2,256.1,149.2z"/>
	<path class="st1" d="M266.7,141.5c0.6,0,1.1,0.1,1.6,0.3c0.5,0.2,0.9,0.5,1.3,0.8c0.4,0.4,0.6,0.8,0.8,1.3c0.2,0.5,0.3,1.1,0.3,1.8
		c0,0.2,0,0.3,0,0.4c0,0.1,0,0.2-0.1,0.3c0,0.1-0.1,0.1-0.2,0.1c-0.1,0-0.2,0-0.3,0h-5.7c0.1,0.9,0.3,1.6,0.8,2.1s1,0.7,1.8,0.7
		c0.4,0,0.7,0,0.9-0.1c0.3-0.1,0.5-0.2,0.7-0.3c0.2-0.1,0.4-0.2,0.5-0.3s0.3-0.1,0.4-0.1c0.1,0,0.2,0,0.2,0.1c0.1,0,0.1,0.1,0.2,0.2
		l0.6,0.8c-0.2,0.3-0.5,0.5-0.8,0.7c-0.3,0.2-0.6,0.4-1,0.5c-0.3,0.1-0.7,0.2-1,0.2c-0.3,0-0.7,0.1-1,0.1c-0.6,0-1.2-0.1-1.8-0.3
		c-0.6-0.2-1-0.5-1.4-0.9c-0.4-0.4-0.7-0.9-1-1.5c-0.2-0.6-0.4-1.3-0.4-2.1c0-0.6,0.1-1.2,0.3-1.8c0.2-0.6,0.5-1,0.9-1.4
		c0.4-0.4,0.8-0.7,1.4-1C265.3,141.6,266,141.5,266.7,141.5z M266.7,143.1c-0.6,0-1.2,0.2-1.5,0.5c-0.4,0.4-0.6,0.9-0.7,1.6h4.2
		c0-0.3,0-0.6-0.1-0.8c-0.1-0.3-0.2-0.5-0.4-0.7c-0.2-0.2-0.4-0.3-0.6-0.5C267.3,143.1,267,143.1,266.7,143.1z"/>
	<path class="st1" d="M272.5,150.9v-9.2h1.4c0.3,0,0.5,0.1,0.6,0.4l0.2,0.7c0.2-0.2,0.4-0.4,0.6-0.5s0.4-0.3,0.7-0.4
		c0.2-0.1,0.5-0.2,0.7-0.3c0.3-0.1,0.6-0.1,0.9-0.1c0.5,0,1,0.1,1.3,0.3c0.4,0.2,0.7,0.4,1,0.7c0.3,0.3,0.5,0.7,0.6,1.1
		c0.1,0.4,0.2,0.9,0.2,1.4v5.9h-2.2V145c0-0.6-0.1-1-0.4-1.3c-0.3-0.3-0.7-0.5-1.2-0.5c-0.4,0-0.7,0.1-1.1,0.3
		c-0.3,0.2-0.7,0.4-1,0.7v6.7H272.5z"/>
	<path class="st1" d="M285.7,151c-0.8,0-1.4-0.2-1.8-0.7c-0.4-0.5-0.6-1.1-0.6-1.9v-5.2h-0.9c-0.1,0-0.2,0-0.3-0.1
		c-0.1-0.1-0.1-0.2-0.1-0.4V142l1.5-0.2l0.5-2.5c0-0.1,0.1-0.2,0.2-0.3c0.1-0.1,0.2-0.1,0.3-0.1h1.2v2.9h2.4v1.6h-2.4v5
		c0,0.3,0.1,0.5,0.2,0.7c0.1,0.2,0.3,0.2,0.6,0.2c0.1,0,0.3,0,0.3,0s0.2-0.1,0.2-0.1s0.1-0.1,0.2-0.1s0.1,0,0.2,0c0.1,0,0.1,0,0.2,0
		c0,0,0.1,0.1,0.1,0.1l0.7,1.1c-0.3,0.3-0.7,0.5-1.1,0.6C286.6,150.9,286.2,151,285.7,151z"/>
	<path class="st1" d="M295.1,143.4c-0.1,0.1-0.1,0.2-0.2,0.2s-0.2,0.1-0.3,0.1c-0.1,0-0.2,0-0.3-0.1c-0.1-0.1-0.3-0.1-0.4-0.2
		c-0.2-0.1-0.3-0.1-0.6-0.2s-0.5-0.1-0.7-0.1c-0.4,0-0.8,0.1-1,0.3c-0.3,0.2-0.4,0.4-0.4,0.7c0,0.2,0.1,0.4,0.2,0.5
		c0.1,0.1,0.3,0.3,0.5,0.4c0.2,0.1,0.5,0.2,0.7,0.3s0.5,0.2,0.8,0.3c0.3,0.1,0.6,0.2,0.8,0.3c0.3,0.1,0.5,0.3,0.7,0.5
		c0.2,0.2,0.4,0.4,0.5,0.7c0.1,0.3,0.2,0.6,0.2,1c0,0.4-0.1,0.9-0.2,1.2s-0.4,0.7-0.7,1c-0.3,0.3-0.7,0.5-1.2,0.6
		c-0.5,0.2-1,0.2-1.6,0.2c-0.3,0-0.6,0-0.9-0.1c-0.3-0.1-0.6-0.1-0.9-0.2c-0.3-0.1-0.5-0.2-0.8-0.4s-0.4-0.3-0.6-0.5l0.5-0.8
		c0.1-0.1,0.1-0.2,0.2-0.2c0.1-0.1,0.2-0.1,0.3-0.1c0.1,0,0.3,0,0.4,0.1s0.3,0.2,0.4,0.3s0.4,0.2,0.6,0.3c0.2,0.1,0.5,0.1,0.8,0.1
		c0.3,0,0.5,0,0.7-0.1c0.2-0.1,0.3-0.1,0.5-0.2c0.1-0.1,0.2-0.2,0.3-0.4c0.1-0.1,0.1-0.3,0.1-0.4c0-0.2-0.1-0.4-0.2-0.5
		c-0.1-0.1-0.3-0.3-0.5-0.4s-0.5-0.2-0.7-0.3s-0.6-0.2-0.8-0.3s-0.6-0.2-0.8-0.3c-0.3-0.1-0.5-0.3-0.7-0.5s-0.4-0.4-0.5-0.7
		s-0.2-0.6-0.2-1c0-0.4,0.1-0.7,0.2-1.1c0.2-0.3,0.4-0.6,0.7-0.9s0.7-0.5,1.1-0.6s0.9-0.2,1.5-0.2c0.6,0,1.2,0.1,1.7,0.3
		c0.5,0.2,1,0.5,1.3,0.8L295.1,143.4z"/>
</g>
</svg>
