<?xml version="1.0" encoding="utf-8"?>
<!-- Generator: Adobe Illustrator 16.0.0, SVG Export Plug-In . SVG Version: 6.00 Build 0)  -->
<!DOCTYPE svg PUBLIC "-//W3C//DTD SVG 1.1//EN" "http://www.w3.org/Graphics/SVG/1.1/DTD/svg11.dtd">
<svg version="1.1" id="Layer_1" xmlns="http://www.w3.org/2000/svg" xmlns:xlink="http://www.w3.org/1999/xlink" x="0px" y="0px"
	 width="169px" height="170px" viewBox="205.5 164.5 169 170" enable-background="new 205.5 164.5 169 170" xml:space="preserve">
<title>Stats_2</title>
<path fill="#999999" d="M291.094,248.906l-71.562,28.906c-15.938-39.531,3.125-84.531,42.656-100.469
	c9.219-3.75,19.062-5.625,28.906-5.625V248.906z"/>
<path fill="#418AB8" d="M291.094,248.906v-77.188c42.656,0,77.188,34.531,77.188,77.188s-34.531,77.188-77.188,77.188
	c-32.344,0-59.375-18.281-71.562-48.281L291.094,248.906z"/>
<path fill="#333333" d="M291.094,187.188c-7.969,0-15.781,1.406-23.125,4.531c-31.562,12.812-46.875,48.75-34.062,80.312l0,0
	c9.062,23.594,31.875,39.062,57.188,38.594c34.062-0.781,61.094-29.062,60.312-63.125
	C350.781,214.531,324.062,187.969,291.094,187.188L291.094,187.188z"/>
<g enable-background="new    ">
	<path fill="#FFFFFF" d="M256.094,241.875c1.406,0,2.656,0.156,4.062,0.625s2.5,1.094,3.594,2.031s1.875,2.188,2.5,3.594
		s0.938,3.125,0.938,5c0,1.719-0.312,3.438-0.938,5s-1.562,2.969-2.812,4.219s-2.656,2.188-4.375,2.812s-3.594,1.094-5.625,1.094
		c-2.188,0-4.062-0.312-5.781-0.938s-3.125-1.562-4.219-2.812s-2.031-2.656-2.656-4.375s-0.938-3.438-0.938-5.469
		c0-1.875,0.312-3.75,1.094-5.625s1.875-3.75,3.281-5.781l8.594-11.562c0.312-0.469,0.938-0.938,1.719-1.25s1.562-0.469,2.656-0.469
		h7.188l-11.25,13.438c-0.156,0.156-0.312,0.312-0.469,0.625c-0.156,0.156-0.312,0.469-0.469,0.625
		c0.625-0.156,1.25-0.469,1.875-0.469S255.312,241.875,256.094,241.875z M247.656,253.75c0,0.938,0.156,1.719,0.312,2.5
		s0.625,1.406,1.094,1.875s1.094,0.938,1.719,1.25c0.781,0.312,1.562,0.469,2.5,0.469c0.781,0,1.562-0.156,2.344-0.469
		s1.406-0.781,1.875-1.25c0.469-0.625,0.938-1.25,1.25-1.875c0.312-0.781,0.469-1.562,0.469-2.344c0-0.938-0.156-1.875-0.469-2.656
		s-0.625-1.406-1.25-1.875s-1.094-0.938-1.875-1.25s-1.562-0.469-2.5-0.469c-0.781,0-1.562,0.156-2.188,0.469
		s-1.25,0.625-1.719,1.25c-0.469,0.469-0.938,1.25-1.094,1.875C247.812,252.031,247.656,252.812,247.656,253.75z"/>
</g>
<g enable-background="new    ">
	<path fill="#FFFFFF" d="M281.719,251.094c-1.25,0-2.5-0.156-3.75-0.625s-2.344-1.094-3.281-2.031s-1.875-2.031-2.5-3.438
		s-0.938-2.969-0.938-4.844c0-1.719,0.312-3.281,0.938-4.844s1.562-2.812,2.656-4.062c1.25-1.094,2.656-2.031,4.219-2.656
		s3.438-0.938,5.469-0.938s3.906,0.312,5.469,0.938s2.969,1.562,4.062,2.656s2.031,2.5,2.656,4.062s0.938,3.281,0.938,5.156
		c0,1.25-0.156,2.5-0.312,3.594s-0.469,2.188-0.781,3.125s-0.781,2.031-1.25,2.812c-0.469,0.938-1.094,1.875-1.719,2.656
		l-8.125,11.562c-0.312,0.469-0.938,0.938-1.719,1.25s-1.562,0.469-2.5,0.469h-7.5l12.188-14.375
		c0.312-0.312,0.469-0.625,0.625-0.781c0.156-0.312,0.469-0.469,0.625-0.781c-0.781,0.469-1.562,0.781-2.5,0.938
		C283.75,250.938,282.812,251.094,281.719,251.094z M290.156,239.531c0-0.938-0.156-1.719-0.469-2.5s-0.625-1.25-1.094-1.719
		s-1.094-0.781-1.719-1.094s-1.406-0.312-2.188-0.312s-1.562,0.156-2.188,0.469s-1.25,0.625-1.562,1.25
		c-0.469,0.469-0.781,1.094-1.094,1.719s-0.312,1.406-0.312,2.188c0,3.75,1.719,5.625,5.312,5.625c1.719,0,3.125-0.469,3.906-1.562
		C289.688,242.656,290.156,241.25,290.156,239.531z"/>
</g>
<g enable-background="new    ">
	<path fill="#FFFFFF" d="M320.312,237.188c0,1.406-0.312,2.656-0.781,3.75s-1.25,2.188-2.031,2.969s-1.875,1.406-2.969,1.875
		s-2.188,0.625-3.438,0.625s-2.5-0.156-3.594-0.625s-2.031-1.094-2.812-1.875s-1.406-1.875-1.875-2.969s-0.625-2.344-0.625-3.75
		s0.156-2.812,0.625-3.906c0.469-1.25,1.094-2.188,1.875-2.969s1.719-1.406,2.812-1.875s2.344-0.625,3.594-0.625
		s2.5,0.156,3.594,0.625s2.031,1.094,2.969,1.875s1.406,1.875,1.875,2.969S320.312,235.625,320.312,237.188z M332.188,229.062
		c0.312-0.312,0.625-0.625,0.938-0.781s0.938-0.312,1.562-0.312h5.938l-28.594,36.875c-0.312,0.312-0.625,0.625-0.938,0.781
		s-0.938,0.312-1.406,0.312h-6.094L332.188,229.062z M314.062,237.188c0-0.938,0-1.562-0.156-2.188s-0.312-1.094-0.625-1.406
		s-0.625-0.625-0.938-0.781s-0.781-0.156-1.094-0.156c-0.469,0-0.781,0-1.094,0.156s-0.625,0.312-0.938,0.781
		s-0.469,0.781-0.625,1.406s-0.156,1.25-0.156,2.188c0,0.781,0,1.562,0.156,2.031c0.156,0.625,0.312,0.938,0.625,1.406
		s0.469,0.625,0.938,0.781s0.781,0.156,1.094,0.156c0.469,0,0.781,0,1.094-0.156s0.625-0.312,0.938-0.781s0.469-0.781,0.625-1.406
		S314.062,237.969,314.062,237.188z M342.188,257.031c0,1.406-0.312,2.656-0.781,3.75s-1.25,2.188-2.031,2.969
		s-1.875,1.406-2.969,1.875s-2.188,0.625-3.438,0.625s-2.5-0.156-3.594-0.625s-2.031-1.094-2.812-1.875s-1.406-1.875-1.875-2.969
		s-0.625-2.5-0.625-3.75c0-1.406,0.156-2.812,0.625-3.906c0.469-1.25,1.094-2.188,1.875-2.969s1.719-1.406,2.812-1.875
		s2.344-0.625,3.594-0.625s2.5,0.156,3.594,0.625s2.031,1.094,2.969,1.875c0.781,0.781,1.406,1.875,1.875,2.969
		S342.188,255.625,342.188,257.031z M335.938,257.031c0-0.938,0-1.562-0.156-2.188s-0.312-1.094-0.625-1.406
		s-0.625-0.625-0.938-0.781s-0.781-0.156-1.094-0.156c-0.469,0-0.781,0-1.094,0.156s-0.625,0.312-0.938,0.781
		c-0.312,0.312-0.469,0.781-0.625,1.406s-0.156,1.25-0.156,2.188c0,0.781,0,1.562,0.156,2.031s0.312,0.938,0.625,1.406
		c0.312,0.312,0.469,0.625,0.938,0.781c0.312,0.156,0.781,0.156,1.094,0.156c0.469,0,0.781,0,1.094-0.156s0.625-0.312,0.938-0.781
		c0.312-0.312,0.469-0.781,0.625-1.406S335.938,257.812,335.938,257.031z"/>
</g>
</svg>
