<?xml version="1.0" encoding="utf-8"?>
<!-- Generator: Adobe Illustrator 16.0.0, SVG Export Plug-In . SVG Version: 6.00 Build 0)  -->
<!DOCTYPE svg PUBLIC "-//W3C//DTD SVG 1.1//EN" "http://www.w3.org/Graphics/SVG/1.1/DTD/svg11.dtd">
<svg version="1.1" id="Layer_1" xmlns="http://www.w3.org/2000/svg" xmlns:xlink="http://www.w3.org/1999/xlink" x="0px" y="0px"
	 width="166px" height="173px" viewBox="215.5 141.5 166 173" enable-background="new 215.5 141.5 166 173" xml:space="preserve">
<title>Stats_2</title>
<path fill="#999999" d="M298.438,227.969l-9.375,76.719c-42.344-5.156-72.5-43.75-67.188-86.094
	c4.688-38.75,37.656-67.812,76.562-67.812V227.969z"/>
<path fill="#418AB8" d="M298.438,227.969v-77.188c42.656,0,77.188,34.531,77.188,77.188s-34.531,77.188-77.188,77.188
	c-3.125,0-6.25-0.156-9.375-0.625L298.438,227.969z"/>
<path fill="#333333" d="M298.438,166.25c-34.062,0-61.719,27.656-61.719,61.875c0,31.094,23.281,57.5,54.219,61.25
	c2.5,0.312,5,0.469,7.5,0.469c34.062,0.469,62.188-26.719,62.812-60.781c0.469-34.062-26.719-62.188-60.781-62.812
	C299.688,166.25,299.062,166.25,298.438,166.25z"/>
<g enable-background="new    ">
	<path fill="#FFFFFF" d="M274.219,207.812c0,0.625-0.156,1.094-0.312,1.562s-0.469,0.781-0.781,1.25
		c-0.312,0.312-0.938,0.625-1.406,0.781s-1.406,0.312-2.188,0.312h-9.062l-1.094,6.25c0.781-0.156,1.406-0.156,2.031-0.312
		c0.625,0,1.25-0.156,1.875-0.156c2.031,0,3.75,0.312,5.312,0.938s2.812,1.406,3.906,2.5s1.875,2.344,2.344,3.75
		s0.781,2.969,0.781,4.531c0,2.031-0.312,3.906-1.094,5.625s-1.719,3.125-2.969,4.375s-2.812,2.188-4.531,2.812
		s-3.75,0.938-5.781,0.938c-1.25,0-2.344-0.156-3.594-0.469c-1.094-0.312-2.188-0.625-3.125-1.094s-1.875-0.938-2.656-1.562
		s-1.562-1.25-2.344-1.875l2.5-3.281c0.312-0.312,0.625-0.625,0.938-0.781s0.781-0.312,1.094-0.312c0.469,0,0.938,0.156,1.406,0.469
		s0.938,0.625,1.562,0.938s1.25,0.625,1.875,0.938c0.781,0.312,1.562,0.469,2.656,0.469s2.031-0.156,2.812-0.469
		s1.406-0.781,1.875-1.406s0.781-1.406,1.094-2.188c0.156-0.781,0.312-1.719,0.312-2.656c0-1.875-0.469-3.281-1.562-4.219
		s-2.5-1.406-4.375-1.406c-1.719,0-3.438,0.312-5,0.938l-5-1.406L255,204.531h19.531v3.281H274.219z"/>
</g>
<g enable-background="new    ">
	<path fill="#FFFFFF" d="M292.031,204.062c1.875,0,3.594,0.312,5,0.781c1.562,0.625,2.812,1.25,3.906,2.344
		c1.094,0.938,1.875,2.188,2.5,3.438c0.625,1.406,0.781,2.812,0.781,4.375c0,1.406-0.156,2.656-0.625,3.906
		s-0.938,2.344-1.562,3.438s-1.406,2.031-2.344,3.125c-0.938,0.938-1.875,2.031-2.812,2.969l-7.5,7.656
		c0.938-0.312,1.875-0.469,2.812-0.625s1.875-0.312,2.656-0.312h7.031c0.938,0,1.562,0.312,2.031,0.781s0.781,1.094,0.781,1.875
		v4.688h-26.719v-2.656c0-0.469,0.156-1.094,0.312-1.562c0.156-0.625,0.625-1.094,1.094-1.562l10.938-11.094
		c0.938-0.938,1.719-1.875,2.5-2.656c0.625-0.781,1.25-1.719,1.719-2.5s0.781-1.719,1.094-2.5c0.156-0.781,0.312-1.719,0.312-2.656
		c0-1.562-0.312-2.656-1.094-3.438s-1.875-1.25-3.281-1.25c-0.625,0-1.094,0.156-1.719,0.312c-0.469,0.156-0.938,0.469-1.406,0.781
		s-0.781,0.625-1.094,1.094s-0.469,0.781-0.625,1.25c-0.312,0.781-0.625,1.406-1.094,1.719s-0.938,0.469-1.719,0.469
		c-0.156,0-0.312,0-0.625,0c-0.156,0-0.469,0-0.625,0l-4.219-0.781c0.312-1.875,0.781-3.594,1.562-5s1.719-2.656,2.969-3.594
		s2.5-1.562,4.062-2.031C288.594,204.219,290.312,204.062,292.031,204.062z"/>
</g>
<g enable-background="new    ">
	<path fill="#FFFFFF" d="M326.562,213.906c0,1.406-0.312,2.656-0.781,3.906c-0.469,1.094-1.094,2.188-1.875,2.969
		s-1.719,1.406-2.812,1.875s-2.188,0.625-3.281,0.625c-1.25,0-2.344-0.156-3.438-0.625s-2.031-1.094-2.812-1.875
		s-1.406-1.719-1.875-2.969c-0.469-1.094-0.625-2.5-0.625-3.906s0.156-2.812,0.625-3.906c0.469-1.25,1.094-2.188,1.875-2.969
		s1.719-1.406,2.812-1.875s2.188-0.625,3.438-0.625s2.344,0.156,3.438,0.625s2.031,1.094,2.812,1.875s1.406,1.875,1.875,2.969
		S326.562,212.5,326.562,213.906z M339.219,205.781c0.156-0.312,0.469-0.469,0.781-0.781c0.312-0.156,0.781-0.312,1.25-0.312h4.688
		l-27.969,36.719c-0.156,0.312-0.469,0.469-0.781,0.625s-0.781,0.312-1.094,0.312h-4.844L339.219,205.781z M321.562,213.906
		c0-0.938-0.156-1.875-0.312-2.5s-0.469-1.25-0.781-1.719s-0.781-0.781-1.25-0.938s-0.938-0.312-1.406-0.312
		s-0.938,0.156-1.406,0.312s-0.781,0.469-1.25,0.938c-0.312,0.469-0.625,0.938-0.781,1.719c-0.156,0.625-0.312,1.562-0.312,2.5
		s0.156,1.719,0.312,2.5c0.156,0.625,0.469,1.25,0.781,1.562c0.312,0.469,0.781,0.625,1.25,0.938
		c0.469,0.156,0.938,0.312,1.406,0.312s0.938-0.156,1.406-0.312s0.938-0.469,1.25-0.938s0.625-0.938,0.781-1.562
		C321.562,215.625,321.562,214.844,321.562,213.906z M347.969,233.594c0,1.406-0.312,2.656-0.781,3.906
		c-0.469,1.094-1.094,2.188-1.875,2.969s-1.719,1.406-2.812,1.875s-2.188,0.625-3.281,0.625c-1.25,0-2.344-0.156-3.438-0.625
		s-2.031-1.094-2.812-1.875s-1.406-1.719-1.875-2.969c-0.469-1.094-0.625-2.5-0.625-3.906s0.156-2.812,0.625-3.906
		c0.469-1.25,1.094-2.188,1.875-2.969s1.719-1.406,2.812-1.875s2.188-0.625,3.438-0.625s2.344,0.156,3.438,0.625
		s2.031,1.094,2.812,1.875s1.406,1.875,1.875,2.969C347.656,230.781,347.969,232.188,347.969,233.594z M342.969,233.594
		c0-0.938-0.156-1.875-0.312-2.5s-0.469-1.25-0.781-1.719s-0.781-0.781-1.25-0.938s-0.938-0.312-1.406-0.312
		s-0.938,0.156-1.406,0.312s-0.781,0.469-1.094,0.938s-0.625,0.938-0.781,1.719c-0.156,0.625-0.312,1.562-0.312,2.5
		s0.156,1.719,0.312,2.5c0.156,0.625,0.469,1.25,0.781,1.562c0.312,0.469,0.781,0.625,1.094,0.938
		c0.469,0.156,0.938,0.312,1.406,0.312s0.938-0.156,1.406-0.312s0.938-0.469,1.25-0.938s0.625-0.938,0.781-1.562
		S342.969,234.531,342.969,233.594z"/>
</g>
</svg>
